<svg width="34" height="34" viewBox="0 0 34 34" fill="none" xmlns="http://www.w3.org/2000/svg">
<path d="M0.333252 33.6666V23.2499H2.41659V30.1082L9.91659 22.6083L11.3916 24.0833L3.89159 31.5833H10.7499V33.6666H0.333252ZM23.2499 33.6666V31.5833H30.1082L22.6083 24.0833L24.0833 22.6083L31.5833 30.1082V23.2499H33.6666V33.6666H23.2499ZM9.91659 11.3916L2.41659 3.89159V10.7499H0.333252V0.333252H10.7499V2.41659H3.89159L11.3916 9.91659L9.91659 11.3916ZM24.0833 11.3916L22.6083 9.91659L30.1082 2.41659H23.2499V0.333252H33.6666V10.7499H31.5833V3.89159L24.0833 11.3916ZM16.9999 19.7645C16.2402 19.7645 15.5895 19.4937 15.0478 18.952C14.5062 18.4103 14.2353 17.7596 14.2353 16.9999C14.2353 16.2402 14.5062 15.5895 15.0478 15.0478C15.5895 14.5062 16.2402 14.2353 16.9999 14.2353C17.7596 14.2353 18.4103 14.5062 18.952 15.0478C19.4937 15.5895 19.7645 16.2402 19.7645 16.9999C19.7645 17.7596 19.4937 18.4103 18.952 18.952C18.4103 19.4937 17.7596 19.7645 16.9999 19.7645Z" fill="#7E8894"/>
</svg>
